HIERARCHY
ROOT Hips
{
  OFFSET 228.851 101.489 -231.624
  CHANNELS 6 Xposition Yposition Zposition Zrotation Xrotation Yrotation
  JOINT ToSpine
  {
    OFFSET -0.0105055 1.38907 -7.13956
    CHANNELS 3 Zrotation Xrotation Yrotation
    JOINT Spine
    {
      OFFSET 0.0105055 10 1
      CHANNELS 3 Zrotation Xrotation Yrotation
      JOINT Spine1
      {
        OFFSET 0 12 1.60637
        CHANNELS 3 Zrotation Xrotation Yrotation
        JOINT Neck
        {
          OFFSET 0 27 2.26658
          CHANNELS 3 Zrotation Xrotation Yrotation
          JOINT Head
          {
            OFFSET 0 9 2.12705
            CHANNELS 3 Zrotation Xrotation Yrotation
            End Site
            {
              OFFSET 0 11 2
            }
          }
        }
        JOINT LeftShoulder
        {
          OFFSET 8 19.6109 2.86452
          CHANNELS 3 Zrotation Xrotation Yrotation
          JOINT LeftArm
          {
            OFFSET 12 1 0.681055
            CHANNELS 3 Zrotation Xrotation Yrotation
            JOINT LeftForeArm
            {
              OFFSET 19 0 -1.52608
              CHANNELS 3 Zrotation Xrotation Yrotation
              JOINT LeftHand
              {
                OFFSET 23 0 0
                CHANNELS 3 Zrotation Xrotation Yrotation
                End Site
                {
                  OFFSET 10 0 0
                }
              }
            }
          }
        }
        JOINT RightShoulder
        {
          OFFSET -8 19.6109 2.86452
          CHANNELS 3 Zrotation Xrotation Yrotation
          JOINT RightArm
          {
            OFFSET -12 1 0.681055
            CHANNELS 3 Zrotation Xrotation Yrotation
            JOINT RightForeArm
            {
              OFFSET -19 0 -1.52608
              CHANNELS 3 Zrotation Xrotation Yrotation
              JOINT RightHand
              {
                OFFSET -23 0 0
                CHANNELS 3 Zrotation Xrotation Yrotation
                End Site
                {
                  OFFSET -10 0 0
                }
              }
            }
          }
        }
      }
    }
  }
  JOINT LeftUpLeg
  {
    OFFSET 9 -7.17245 0
    CHANNELS 3 Zrotation Xrotation Yrotation
    JOINT LeftLeg
    {
      OFFSET 0 -44.1113 0
      CHANNELS 3 Zrotation Xrotation Yrotation
      JOINT LeftFoot
      {
        OFFSET 0 -36.1829 0
        CHANNELS 3 Zrotation Xrotation Yrotation
        JOINT LeftToeBase
        {
          OFFSET 0 -4.84184 13
          CHANNELS 3 Zrotation Xrotation Yrotation
          End Site
          {
            OFFSET 0 1 6
          }
        }
      }
    }
  }
  JOINT RightUpLeg
  {
    OFFSET -9 -7.17245 0
    CHANNELS 3 Zrotation Xrotation Yrotation
    JOINT RightLeg
    {
      OFFSET 0 -44.0551 0
      CHANNELS 3 Zrotation Xrotation Yrotation
      JOINT RightFoot
      {
        OFFSET 0 -36.1469 0
        CHANNELS 3 Zrotation Xrotation Yrotation
        JOINT RightToeBase
        {
          OFFSET 0 -4.92256 13
          CHANNELS 3 Zrotation Xrotation Yrotation
          End Site
          {
            OFFSET 0 1 6
          }
        }
      }
    }
  }
}
MOTION
Frames:	10
Frame Time:	0.0333333
25.1933 96.5432 -45.9236 -1.83226 -6.75753 -59.1829 0 0 0 4.39487 0.0829201 3.49699 -15.7098 5.10582 6.54378 12.501 6.96503 1.77941 8.54157 3.97535 3.99027 -29.3287 2.76638 -4.29844 -25.5364 12.4114 -21.1098 -4.10363 -19.308 -1.90861 -7.49157 -0.00965795 0.141047 19.5006 4.70076 14.4301 60.7865 11.1648 -1.63643 4.77511 -8.02345 0.212228 3.49783 0.0548568 1.77546 -4.58673 -8.31018 11.8767 -0.247944 36.2465 -16.5674 14.479 -14.9333 1.93814 0.0237904 -3.58348 1.01854 -2.65999 -14.806 3.65975 1.16419 85.6246 -6.87342 -31.6592 -3.05211 -0.860137 5.01625 -20.4024 -8.63043 
20.7744 100.209 -43.3453 -5.84262 -5.27546 -58.2513 0 0 0 3.1169 2.54118 1.59863 -9.62721 4.13691 3.06813 12.816 13.4468 1.48209 7.20263 3.94533 4.88967 -27.5763 2.83131 -4.88844 -26.9243 15.4125 -21.7899 -4.76739 -20.8911 -3.25864 -7.79962 0.0331914 -0.481648 19.6902 4.92986 15.168 59.7272 11.148 -4.20724 4.74529 -8.88188 2.03083 4.04655 0.0980074 2.78317 -2.14086 -0.16298 8.26374 -0.524563 29.3958 -12.6641 11.5236 -6.40736 0.658915 1.01616 -3.48316 -3.64406 2.94974 -17.715 6.3942 -0.355069 81.3201 -10.6569 -29.1684 -6.84342 -1.77344 4.58838 -18.0918 -7.88501 
16.535 103.344 -40.5598 -7.72276 -3.55766 -55.2734 0 0 0 2.16731 3.30852 -0.573006 -4.58325 3.31151 -0.237414 13.8326 18.5862 0.618295 4.79069 3.42527 5.70676 -24.3587 2.95769 -6.16204 -29.3609 18.9135 -22.9787 -5.20448 -20.3685 -3.97064 -9.86075 0.051461 -0.598077 19.7064 4.8846 14.9873 59.0356 11.6526 -6.87143 4.8196 -9.08416 4.41287 4.49695 0.114332 2.91725 -1.2654 3.53255 4.38762 0.604637 26.3239 -9.57471 10.7478 0.154555 -0.0530421 0.0905878 -0.613848 -0.287949 6.12147 -21.6875 7.84726 0.0535158 76.3271 -9.75267 -26.0513 -10.1781 -2.36562 3.71357 -13.7629 -7.69485 
12.408 105.124 -38.0303 -8.13742 -2.0525 -51.1522 0 0 0 0.24194 2.49512 -2.36993 0.000526482 4.31914 -2.90257 16.1077 19.4007 -0.917272 2.61135 3.33885 5.8425 -19.8891 3.01639 -7.89529 -32.0917 21.121 -27.8484 -5.20966 -18.5723 -0.986704 -9.65118 0.0713688 -0.850975 19.7344 4.74918 14.467 59.1869 10.3628 -8.62954 4.76476 -10.3873 5.66365 4.38314 0.124719 3.2562 -0.351934 4.16036 5.53353 0.414148 25.9864 -6.93745 12.8618 2.73463 -0.373901 0.192205 -3.48709 0.0554335 7.53222 -26.0048 7.76177 0.00133275 70.9365 -9.43533 -25.036 -11.6116 -2.58909 3.48525 -12.735 -6.37257 
8.32306 105.847 -35.5156 -8.11936 -0.806905 -46.9969 0 0 0 -1.92903 2.07838 -3.97106 4.38154 5.31124 -5.41593 17.666 17.367 -1.9136 1.01698 4.19462 5.63983 -18.3154 3.18521 -9.22454 -30.9196 22.829 -34.3938 -5.87582 -17.7061 3.19202 -8.69984 0.0909805 -1.1933 20.5027 4.65398 13.6492 58.0713 8.18537 -9.3301 4.32537 -10.6107 5.16104 4.84133 0.135202 3.19684 0.717074 4.06756 8.62218 -1.4353 24.0086 -4.92797 4.53984 -3.87669 0.204727 0.222052 6.29473 -2.07295 7.64288 -28.9267 6.87861 -0.0929831 63.9725 -7.16498 -25.8298 -10.5205 -2.41544 3.89193 -14.5906 -6.63997 
4.30035 105.573 -32.9179 -9.05225 0.301159 -43.2639 0 0 0 -2.59487 3.5963 -5.55516 8.09406 4.76964 -7.70175 18.326 14.7847 -2.34893 -0.0274586 5.53304 5.36008 -19.6805 3.37744 -9.34773 -27.1528 24.3006 -39.7498 -7.09076 -18.1511 4.9472 -8.09859 0.0799227 -1.12652 21.7726 4.75144 13.2705 56.4707 6.71845 -10.2583 4.09023 -11.4053 4.15945 4.87637 0.121876 2.86082 1.47573 5.05621 9.92188 -2.86848 19.0231 -4.92625 -2.45103 -2.45837 -0.05498 0.60276 3.68612 -3.12485 7.66004 -29.5903 4.98787 0.00919852 55.2199 -3.18877 -27.2635 -9.48754 -2.30746 4.28149 -16.6216 -7.9937 
0.242929 104.36 -30.2525 -9.69245 1.75677 -39.6909 0 0 0 -3.21628 4.12597 -6.91314 11.3265 4.2081 -9.63255 19.1779 13.2098 -3.11522 -1.18629 6.03416 5.01604 -21.2931 3.60465 -9.46524 -26.4882 23.2019 -42.7668 -7.7827 -15.6097 4.70927 -7.76219 0.0696303 -1.02791 22.9027 4.88299 13.1084 55.1933 6.22499 -11.7014 3.99152 -11.1514 4.18422 5.2627 0.108958 2.38137 1.98282 4.39891 9.45535 -2.75485 16.0288 -10.6606 -3.48235 -1.56122 -0.0627294 0.0860461 2.71733 -0.924996 7.72473 -30.2074 3.21895 -0.0143995 46.0269 0.157034 -26.0747 -9.71669 -2.25388 4.35309 -16.7564 -6.55021 
-4.02351 102.173 -27.6464 -10.0302 3.29828 -36.1089 0 0 0 -4.94593 3.72028 -7.87456 14.7085 4.25935 -11.203 21.0367 11.4299 -4.10533 -2.69342 5.96264 4.89716 -21.5068 3.69282 -9.68563 -27.7394 22.157 -46.3247 -8.49798 -11.567 4.6245 -7.49581 0.1177 -1.79633 23.3366 4.8555 12.7908 54.9369 5.78758 -13.0207 3.88309 -10.5088 4.71382 6.16137 0.111993 2.06986 2.81925 2.67424 8.83015 -2.05274 17.7145 -16.329 0.74736 -3.69709 -0.131014 0.996252 0.755845 -4.93209 7.89106 -31.4748 1.32606 0.0209602 37.8527 3.5473 -25.2781 -9.50197 -2.1409 4.0104 -15.1818 -6.85791 
-8.50235 99.2522 -25.1417 -10.7626 3.87203 -33.479 0 0 0 -7.11852 4.04242 -8.16765 17.2358 4.2851 -11.9767 23.4664 10.1433 -5.23895 -3.61085 4.61075 4.72478 -21.9149 3.86159 -10.0921 -27.2012 22.7335 -49.4421 -9.1659 -9.88051 4.59155 -7.74071 0.152013 -2.31033 24.8822 5.04795 12.6317 54.1457 5.70984 -14.422 3.99117 -10.9394 5.35436 6.60666 0.140253 2.43485 4.05001 2.96205 9.39237 -0.642891 26.2683 -14.1151 0.582379 -19.3801 0.362834 3.77392 6.92984 -14.1843 8.42785 -31.7909 -0.444959 -0.0319717 30.1496 5.54937 -24.1511 -6.77298 -1.4438 4.54269 -17.7412 -7.22244 
-13.0233 96.211 -22.5108 -12.2576 2.90684 -32.4396 0 0 0 -8.40697 5.42553 -7.74292 18.4401 4.84698 -11.9908 24.9027 9.46643 -5.63874 -2.76268 2.6512 4.47925 -23.8466 4.1952 -10.3743 -27.2493 22.8162 -50.1808 -9.52867 -6.28485 4.58682 -9.18276 0.0614984 -0.727694 26.9704 5.19356 12.1084 52.9862 5.78893 -14.6328 4.01991 -10.6618 4.81969 6.17253 0.132865 2.455 6.41198 9.71448 10.4445 -0.456936 26.2838 -19.9162 15.9936 -30.0725 4.18858 0.964622 5.52436 -4.61662 9.72429 -30.5228 -0.945724 0.222126 24.0787 6.61257 -24.5268 -4.11553 -0.900246 4.79133 -19.0354 -7.70319 
